<svg width="160" height="51" viewBox="0 0 160 51" fill="none" xmlns="http://www.w3.org/2000/svg">
<path d="M56.0104 17.012L45.7291 6.00562L44.1223 7.50748L54.8612 19.0053C55.2 18.3138 55.5844 17.648 56.0104 17.014V17.012Z" fill="#F26225"/>
<path d="M54.7169 19.3057L41.2655 10.9464L40.1044 12.8148L53.9045 21.3901C54.1304 20.6729 54.4038 19.9774 54.7169 19.3057Z" fill="#F26225"/>
<path d="M60.437 12.5165L57.6651 0.372803L55.5212 0.862196L58.5329 14.056C59.1293 13.4992 59.7653 12.9841 60.437 12.5165Z" fill="#F26225"/>
<path d="M63.3294 10.8954V0H61.1301V12.0585C61.8315 11.6206 62.5646 11.2303 63.3294 10.8954Z" fill="#F26225"/>
<path d="M77.9282 11.3573L80.9676 8.34563L79.4201 6.78235L75.7467 10.4201C76.4996 10.6816 77.2268 10.9967 77.9262 11.3573H77.9282Z" fill="#F26225"/>
<path d="M53.8491 21.5778L38.244 16.8761L37.61 18.9823L53.3538 23.7256C53.4727 22.9925 53.6391 22.2753 53.8491 21.5778Z" fill="#F26225"/>
<path d="M72.628 9.65252L75.8992 4.02747L73.9971 2.92188L70.187 9.47024C71.0152 9.47222 71.8296 9.53562 72.6261 9.65054L72.628 9.65252Z" fill="#F26225"/>
<path d="M67.5935 9.66216L69.88 1.18199L67.756 0.609375L65.1664 10.213C65.953 9.97324 66.7634 9.78699 67.5935 9.66216Z" fill="#F26225"/>
<path d="M57.8611 14.7174L51.3227 2.39734L49.379 3.42764L56.3395 16.5422C56.8051 15.8983 57.3123 15.288 57.8611 14.7174Z" fill="#F26225"/>
<path d="M60.6585 40.6217L60.4644 50.6057L62.6636 50.6493L62.834 41.862C62.0772 41.5014 61.348 41.0853 60.6585 40.6217Z" fill="#F26225"/>
<path d="M53.3277 23.8721L36.8726 23.3906L36.8092 25.5899L53.1395 26.0674C53.1573 25.3224 53.2187 24.5893 53.3297 23.8721H53.3277Z" fill="#F26225"/>
<path d="M57.3183 37.6697L53.9381 49.2982L56.0502 49.9124L59.0975 39.4311C58.4615 38.8882 57.8671 38.2997 57.3183 37.6697Z" fill="#F26225"/>
<path d="M70.8888 43.4915L73.4071 48.0209L75.329 46.9529L73.2545 43.222C72.4818 43.3647 71.6932 43.4578 70.8868 43.4915H70.8888Z" fill="#F26225"/>
<path d="M65.271 42.798L67.1058 50.1706L69.2397 49.6396L67.6685 43.329C66.8482 43.2101 66.0477 43.0298 65.269 42.798H65.271Z" fill="#F26225"/>
<path d="M53.2842 28.7791L39.3315 36.3597L40.3817 38.2935L53.7459 31.0338C53.5438 30.3007 53.3892 29.5498 53.2862 28.781L53.2842 28.7791Z" fill="#F26225"/>
<path d="M55.146 34.5391L47.9755 46.334L49.8558 47.4773L56.4616 36.6116C55.9762 35.9557 55.5364 35.2642 55.146 34.5391Z" fill="#F26225"/>
<path d="M53.1256 26.4904C53.1256 26.4092 53.1316 26.3279 53.1316 26.2467L37.2411 30.039L37.7523 32.1789L53.2465 28.4817C53.1712 27.8278 53.1276 27.1641 53.1276 26.4904H53.1256Z" fill="#F26225"/>
<path d="M53.8882 31.5413L42.9928 41.9196L44.5105 43.5126L54.7541 33.7564C54.4173 33.0431 54.126 32.3041 53.8902 31.5413H53.8882Z" fill="#F26225"/>
<path d="M0 10.6615H9.25291L26.0191 35.4799V10.6615H34.2437V46.2545H25.4187L8.22458 21.0002V46.2545H0V10.6615Z" fill="#282E36"/>
<path d="M112.89 10.6615H122.059L107.659 46.2545H99.3212L85.0357 10.6615H94.463L103.633 37.6832L112.89 10.6615Z" fill="#282E36"/>
<path d="M135.071 10.6615H145.057L160 46.2545H150.428L147.64 38.9373H132.085L129.222 46.2545H119.991L135.069 10.6615H135.071ZM134.49 32.8051H145.308L139.972 18.7989L134.49 32.8051Z" fill="#282E36"/>
</svg>
